<svg xmlns="http://www.w3.org/2000/svg" xmlns:xlink="http://www.w3.org/1999/xlink" width="500" zoomAndPan="magnify" viewBox="0 0 375 374.999991" height="500" preserveAspectRatio="xMidYMid meet" version="1.0"><defs><g/><clipPath id="72574263f7"><path d="M 323.363281 237.058594 L 323.722656 237.058594 L 323.722656 237.335938 L 323.363281 237.335938 Z M 323.363281 237.058594 " clip-rule="nonzero"/></clipPath><clipPath id="bba160c902"><path d="M 323.699219 237.226562 C 323.023438 237.523438 323.625 237.074219 323.625 237.074219 " clip-rule="nonzero"/></clipPath><clipPath id="e96825be2b"><path d="M 0.363281 0.0585938 L 0.722656 0.0585938 L 0.722656 0.335938 L 0.363281 0.335938 Z M 0.363281 0.0585938 " clip-rule="nonzero"/></clipPath><clipPath id="eefdcb5807"><path d="M 0.699219 0.226562 C 0.0234375 0.523438 0.625 0.0742188 0.625 0.0742188 " clip-rule="nonzero"/></clipPath><clipPath id="9e5f822e56"><rect x="0" width="1" y="0" height="1"/></clipPath><clipPath id="f02bd2c798"><path d="M 0.71875 2 L 7.679688 2 L 7.679688 6 L 0.71875 6 Z M 0.71875 2 " clip-rule="nonzero"/></clipPath><clipPath id="e2733f9930"><rect x="0" width="8" y="0" height="8"/></clipPath></defs><path stroke-linecap="round" transform="matrix(0, -0.75, 0.75, 0, 112.286884, 222.72977)" fill="none" stroke-linejoin="miter" d="M 1.499069 1.497696 L 91.103241 1.497696 " stroke="#000000" stroke-width="3" stroke-opacity="1" stroke-miterlimit="4"/><path stroke-linecap="butt" transform="matrix(0.75, 0, 0, 0.75, 112.290072, 152.156299)" fill="none" stroke-linejoin="miter" d="M 1.498655 65.286398 L 1.498655 56.640564 C 1.498655 54.348897 2.410113 52.15098 4.029905 50.531188 C 5.654905 48.906188 7.852822 47.99473 10.144489 47.99473 L 44.967408 47.99473 C 51.134075 47.99473 57.045533 45.546813 61.404909 41.187438 C 65.764284 36.828062 68.217409 30.916604 68.217409 24.749937 C 68.217409 18.583269 65.764284 12.666602 61.404909 8.307227 C 57.045533 3.947852 51.134075 1.499935 44.967408 1.499935 L 2.488238 1.499935 C 1.941363 1.499935 1.498655 1.942643 1.498655 2.489518 L 1.498655 3.473893 " stroke="#000000" stroke-width="3" stroke-opacity="1" stroke-miterlimit="4"/><path stroke-linecap="butt" transform="matrix(0.75, 0, 0, 0.75, 112.290072, 180.586452)" fill="none" stroke-linejoin="miter" d="M 1.498655 19.119107 L 1.498655 10.306606 C 1.498655 5.442023 5.441363 1.499314 10.311155 1.499314 L 44.217408 1.499314 C 57.472617 1.499314 68.217409 12.244106 68.217409 25.499315 L 68.217409 32.197233 C 68.217409 45.452442 57.472617 56.197234 44.217408 56.197234 L 2.488238 56.197234 C 1.941363 56.197234 1.498655 55.754526 1.498655 55.207651 L 1.498655 54.218067 " stroke="#000000" stroke-width="3" stroke-opacity="1" stroke-miterlimit="4"/><path stroke-linecap="round" transform="matrix(0, 0.75, -0.75, 0, 121.564201, 160.38544)" fill="none" stroke-linejoin="miter" d="M 1.501705 1.502269 L 71.454835 1.502269 " stroke="#000000" stroke-width="3" stroke-opacity="1" stroke-miterlimit="4"/><path stroke-linecap="butt" transform="matrix(0.75, 0, 0, 0.75, 119.314962, 159.539522)" fill="none" stroke-linejoin="miter" d="M 1.501925 3.702513 L 1.501925 2.598346 C 1.501925 2.30668 1.616509 2.030638 1.819634 1.822305 C 2.027967 1.613971 2.309217 1.499388 2.600884 1.499388 L 30.689427 1.499388 C 38.376928 1.499388 44.611303 7.733763 44.611303 15.416056 C 44.611303 23.103556 38.376928 29.337932 30.689427 29.337932 L 1.710259 29.337932 C 1.652967 29.337932 1.600884 29.31189 1.559217 29.275432 C 1.522759 29.233765 1.501925 29.181682 1.501925 29.129598 L 1.501925 28.921265 " stroke="#000000" stroke-width="3" stroke-opacity="1" stroke-miterlimit="4"/><path stroke-linecap="butt" transform="matrix(0.75, 0, 0, 0.75, 119.314962, 187.028777)" fill="none" stroke-linejoin="miter" d="M 1.501925 0.628298 L 1.501925 1.065798 C 1.501925 1.305381 1.694634 1.49809 1.934217 1.49809 L 26.642552 1.49809 C 31.408177 1.49809 35.981094 3.393923 39.345678 6.763715 C 42.71547 10.128299 44.611303 14.701216 44.611303 19.466841 C 44.611303 24.227258 42.71547 28.800175 39.345678 32.169967 C 35.981094 35.53455 31.408177 37.430384 26.642552 37.430384 L 2.710259 37.430384 C 2.39255 37.430384 2.08005 37.300175 1.856092 37.076217 C 1.626925 36.84705 1.501925 36.539759 1.501925 36.216842 L 1.501925 35.0033 " stroke="#000000" stroke-width="3" stroke-opacity="1" stroke-miterlimit="4"/><g clip-path="url(#72574263f7)"><g clip-path="url(#bba160c902)"><g transform="matrix(1, 0, 0, 1, 323, 237)"><g clip-path="url(#9e5f822e56)"><g clip-path="url(#e96825be2b)"><g clip-path="url(#eefdcb5807)"><rect x="-405.5" width="540" fill="#000000" height="539.999987" y="-319.499998" fill-opacity="1"/></g></g></g></g></g></g><g fill="#000000" fill-opacity="1"><g transform="translate(168.702166, 167.624989)"><g><path d="M 1.765625 0 L 1.765625 -13.5625 L 7.546875 -13.5625 C 8.378906 -13.5625 9.085938 -13.429688 9.671875 -13.171875 C 10.253906 -12.910156 10.691406 -12.535156 10.984375 -12.046875 C 11.285156 -11.554688 11.4375 -10.984375 11.4375 -10.328125 C 11.4375 -9.722656 11.289062 -9.191406 11 -8.734375 C 10.707031 -8.273438 10.285156 -7.910156 9.734375 -7.640625 L 9.734375 -7.4375 C 10.585938 -7.21875 11.242188 -6.8125 11.703125 -6.21875 C 12.171875 -5.632812 12.40625 -4.914062 12.40625 -4.0625 C 12.40625 -2.757812 12.015625 -1.753906 11.234375 -1.046875 C 10.453125 -0.347656 9.289062 0 7.75 0 Z M 7 -8.15625 C 8.25 -8.15625 8.875 -8.71875 8.875 -9.84375 C 8.875 -10.414062 8.71875 -10.84375 8.40625 -11.125 C 8.09375 -11.40625 7.625 -11.546875 7 -11.546875 L 4.4375 -11.546875 L 4.4375 -8.15625 Z M 7.484375 -2.125 C 8.960938 -2.125 9.703125 -2.796875 9.703125 -4.140625 C 9.703125 -5.484375 8.960938 -6.15625 7.484375 -6.15625 L 4.4375 -6.15625 L 4.4375 -2.125 Z M 7.484375 -2.125 "/></g></g></g><g fill="#000000" fill-opacity="1"><g transform="translate(181.966039, 167.624989)"><g><path d="M 4.4375 -5.953125 L 4.4375 -2.25 L 10.921875 -2.25 L 10.921875 0 L 1.765625 0 L 1.765625 -13.5625 L 10.765625 -13.5625 L 10.765625 -11.3125 L 4.4375 -11.3125 L 4.4375 -8.140625 L 9.96875 -8.140625 L 9.96875 -5.953125 Z M 4.4375 -5.953125 "/></g></g></g><g fill="#000000" fill-opacity="1"><g transform="translate(193.625268, 167.624989)"><g><path d="M 4.4375 -13.5625 L 4.4375 -2.25 L 10.546875 -2.25 L 10.546875 0 L 1.765625 0 L 1.765625 -13.5625 Z M 4.4375 -13.5625 "/></g></g></g><g fill="#000000" fill-opacity="1"><g transform="translate(204.607384, 167.624989)"><g><path d="M 4.4375 -13.5625 L 4.4375 -2.25 L 10.546875 -2.25 L 10.546875 0 L 1.765625 0 L 1.765625 -13.5625 Z M 4.4375 -13.5625 "/></g></g></g><g fill="#000000" fill-opacity="1"><g transform="translate(168.702166, 193.874987)"><g><path d="M 6.015625 0.1875 C 5.078125 0.1875 4.238281 0.0703125 3.5 -0.15625 C 2.769531 -0.382812 2.160156 -0.6875 1.671875 -1.0625 C 1.179688 -1.445312 0.804688 -1.863281 0.546875 -2.3125 L 2.015625 -4.109375 L 2.25 -4.109375 C 2.65625 -3.503906 3.171875 -3.019531 3.796875 -2.65625 C 4.429688 -2.300781 5.171875 -2.125 6.015625 -2.125 C 6.734375 -2.125 7.273438 -2.273438 7.640625 -2.578125 C 8.003906 -2.878906 8.1875 -3.296875 8.1875 -3.828125 C 8.1875 -4.148438 8.125 -4.421875 8 -4.640625 C 7.882812 -4.859375 7.691406 -5.039062 7.421875 -5.1875 C 7.148438 -5.34375 6.78125 -5.476562 6.3125 -5.59375 L 4.578125 -6 C 3.359375 -6.269531 2.445312 -6.726562 1.84375 -7.375 C 1.25 -8.019531 0.953125 -8.863281 0.953125 -9.90625 C 0.953125 -10.664062 1.144531 -11.335938 1.53125 -11.921875 C 1.914062 -12.503906 2.472656 -12.957031 3.203125 -13.28125 C 3.941406 -13.601562 4.816406 -13.765625 5.828125 -13.765625 C 6.878906 -13.765625 7.773438 -13.625 8.515625 -13.34375 C 9.265625 -13.070312 9.894531 -12.648438 10.40625 -12.078125 L 9.078125 -10.265625 L 8.84375 -10.265625 C 8.46875 -10.660156 8.03125 -10.957031 7.53125 -11.15625 C 7.039062 -11.363281 6.472656 -11.46875 5.828125 -11.46875 C 5.097656 -11.46875 4.539062 -11.335938 4.15625 -11.078125 C 3.769531 -10.816406 3.578125 -10.457031 3.578125 -10 C 3.578125 -9.570312 3.710938 -9.226562 3.984375 -8.96875 C 4.253906 -8.71875 4.71875 -8.523438 5.375 -8.390625 L 7.15625 -8.015625 C 8.476562 -7.734375 9.4375 -7.257812 10.03125 -6.59375 C 10.625 -5.9375 10.921875 -5.070312 10.921875 -4 C 10.921875 -3.15625 10.738281 -2.414062 10.375 -1.78125 C 10.007812 -1.15625 9.457031 -0.671875 8.71875 -0.328125 C 7.976562 0.015625 7.078125 0.1875 6.015625 0.1875 Z M 6.015625 0.1875 "/></g></g></g><g fill="#000000" fill-opacity="1"><g transform="translate(180.352114, 193.874987)"><g><path d="M 7.40625 0.1875 C 6.15625 0.1875 5.054688 -0.0664062 4.109375 -0.578125 C 3.160156 -1.097656 2.414062 -1.878906 1.875 -2.921875 C 1.332031 -3.960938 1.0625 -5.25 1.0625 -6.78125 C 1.0625 -8.3125 1.332031 -9.597656 1.875 -10.640625 C 2.414062 -11.679688 3.160156 -12.460938 4.109375 -12.984375 C 5.054688 -13.503906 6.15625 -13.765625 7.40625 -13.765625 C 8.71875 -13.765625 9.828125 -13.507812 10.734375 -13 C 11.648438 -12.488281 12.300781 -11.707031 12.6875 -10.65625 L 10.734375 -9.46875 L 10.5 -9.46875 C 10.207031 -10.175781 9.8125 -10.679688 9.3125 -10.984375 C 8.820312 -11.296875 8.1875 -11.453125 7.40625 -11.453125 C 6.28125 -11.453125 5.398438 -11.078125 4.765625 -10.328125 C 4.140625 -9.585938 3.828125 -8.40625 3.828125 -6.78125 C 3.828125 -5.164062 4.140625 -3.984375 4.765625 -3.234375 C 5.398438 -2.492188 6.28125 -2.125 7.40625 -2.125 C 9.175781 -2.125 10.257812 -2.976562 10.65625 -4.6875 L 10.875 -4.6875 L 12.859375 -3.671875 C 12.484375 -2.378906 11.847656 -1.410156 10.953125 -0.765625 C 10.054688 -0.128906 8.875 0.1875 7.40625 0.1875 Z M 7.40625 0.1875 "/></g></g></g><g fill="#000000" fill-opacity="1"><g transform="translate(193.653088, 193.874987)"><g><path d="M 1.765625 0 L 1.765625 -13.5625 L 7.203125 -13.5625 C 8.609375 -13.5625 9.664062 -13.238281 10.375 -12.59375 C 11.09375 -11.945312 11.453125 -11.054688 11.453125 -9.921875 C 11.453125 -9.097656 11.242188 -8.421875 10.828125 -7.890625 C 10.410156 -7.367188 9.789062 -6.96875 8.96875 -6.6875 L 8.96875 -6.5 C 9.394531 -6.3125 9.738281 -6.035156 10 -5.671875 C 10.257812 -5.304688 10.507812 -4.765625 10.75 -4.046875 L 12.09375 0 L 9.34375 0 L 8.015625 -4.046875 C 7.878906 -4.460938 7.722656 -4.78125 7.546875 -5 C 7.378906 -5.226562 7.164062 -5.394531 6.90625 -5.5 C 6.644531 -5.601562 6.300781 -5.65625 5.875 -5.65625 L 4.4375 -5.65625 L 4.4375 0 Z M 6.890625 -7.78125 C 8.179688 -7.78125 8.828125 -8.382812 8.828125 -9.59375 C 8.828125 -10.820312 8.179688 -11.4375 6.890625 -11.4375 L 4.4375 -11.4375 L 4.4375 -7.78125 Z M 6.890625 -7.78125 "/></g></g></g><g fill="#000000" fill-opacity="1"><g transform="translate(206.332614, 193.874987)"><g><path d="M 4.4375 0 L 1.765625 0 L 1.765625 -13.5625 L 4.4375 -13.5625 Z M 4.4375 0 "/></g></g></g><g fill="#000000" fill-opacity="1"><g transform="translate(212.547156, 193.874987)"><g><path d="M 7 -13.5625 C 7.976562 -13.5625 8.8125 -13.382812 9.5 -13.03125 C 10.1875 -12.675781 10.707031 -12.175781 11.0625 -11.53125 C 11.414062 -10.894531 11.59375 -10.15625 11.59375 -9.3125 C 11.59375 -8.457031 11.414062 -7.710938 11.0625 -7.078125 C 10.707031 -6.441406 10.1875 -5.945312 9.5 -5.59375 C 8.8125 -5.238281 7.976562 -5.0625 7 -5.0625 L 4.4375 -5.0625 L 4.4375 0 L 1.765625 0 L 1.765625 -13.5625 Z M 6.65625 -7.1875 C 8.144531 -7.1875 8.890625 -7.894531 8.890625 -9.3125 C 8.890625 -10.726562 8.144531 -11.4375 6.65625 -11.4375 L 4.4375 -11.4375 L 4.4375 -7.1875 Z M 6.65625 -7.1875 "/></g></g></g><g fill="#000000" fill-opacity="1"><g transform="translate(224.939139, 193.874987)"><g><path d="M 10.875 -13.5625 L 10.875 -11.3125 L 6.953125 -11.3125 L 6.953125 0 L 4.28125 0 L 4.28125 -11.3125 L 0.375 -11.3125 L 0.375 -13.5625 Z M 10.875 -13.5625 "/></g></g></g><g fill="#000000" fill-opacity="1"><g transform="translate(168.702166, 220.124986)"><g><path d="M 6.015625 0.1875 C 5.078125 0.1875 4.238281 0.0703125 3.5 -0.15625 C 2.769531 -0.382812 2.160156 -0.6875 1.671875 -1.0625 C 1.179688 -1.445312 0.804688 -1.863281 0.546875 -2.3125 L 2.015625 -4.109375 L 2.25 -4.109375 C 2.65625 -3.503906 3.171875 -3.019531 3.796875 -2.65625 C 4.429688 -2.300781 5.171875 -2.125 6.015625 -2.125 C 6.734375 -2.125 7.273438 -2.273438 7.640625 -2.578125 C 8.003906 -2.878906 8.1875 -3.296875 8.1875 -3.828125 C 8.1875 -4.148438 8.125 -4.421875 8 -4.640625 C 7.882812 -4.859375 7.691406 -5.039062 7.421875 -5.1875 C 7.148438 -5.34375 6.78125 -5.476562 6.3125 -5.59375 L 4.578125 -6 C 3.359375 -6.269531 2.445312 -6.726562 1.84375 -7.375 C 1.25 -8.019531 0.953125 -8.863281 0.953125 -9.90625 C 0.953125 -10.664062 1.144531 -11.335938 1.53125 -11.921875 C 1.914062 -12.503906 2.472656 -12.957031 3.203125 -13.28125 C 3.941406 -13.601562 4.816406 -13.765625 5.828125 -13.765625 C 6.878906 -13.765625 7.773438 -13.625 8.515625 -13.34375 C 9.265625 -13.070312 9.894531 -12.648438 10.40625 -12.078125 L 9.078125 -10.265625 L 8.84375 -10.265625 C 8.46875 -10.660156 8.03125 -10.957031 7.53125 -11.15625 C 7.039062 -11.363281 6.472656 -11.46875 5.828125 -11.46875 C 5.097656 -11.46875 4.539062 -11.335938 4.15625 -11.078125 C 3.769531 -10.816406 3.578125 -10.457031 3.578125 -10 C 3.578125 -9.570312 3.710938 -9.226562 3.984375 -8.96875 C 4.253906 -8.71875 4.71875 -8.523438 5.375 -8.390625 L 7.15625 -8.015625 C 8.476562 -7.734375 9.4375 -7.257812 10.03125 -6.59375 C 10.625 -5.9375 10.921875 -5.070312 10.921875 -4 C 10.921875 -3.15625 10.738281 -2.414062 10.375 -1.78125 C 10.007812 -1.15625 9.457031 -0.671875 8.71875 -0.328125 C 7.976562 0.015625 7.078125 0.1875 6.015625 0.1875 Z M 6.015625 0.1875 "/></g></g></g><g fill="#000000" fill-opacity="1"><g transform="translate(180.194414, 220.124986)"><g><path d="M 10.875 -13.5625 L 10.875 -11.3125 L 6.953125 -11.3125 L 6.953125 0 L 4.28125 0 L 4.28125 -11.3125 L 0.375 -11.3125 L 0.375 -13.5625 Z M 10.875 -13.5625 "/></g></g></g><g fill="#000000" fill-opacity="1"><g transform="translate(191.436242, 220.124986)"><g><path d="M 7.1875 0.1875 C 5.320312 0.1875 3.9375 -0.253906 3.03125 -1.140625 C 2.125 -2.023438 1.671875 -3.335938 1.671875 -5.078125 L 1.671875 -13.5625 L 4.3125 -13.5625 L 4.3125 -5.109375 C 4.3125 -4.117188 4.546875 -3.375 5.015625 -2.875 C 5.492188 -2.382812 6.21875 -2.140625 7.1875 -2.140625 C 9.113281 -2.140625 10.078125 -3.128906 10.078125 -5.109375 L 10.078125 -13.5625 L 12.703125 -13.5625 L 12.703125 -5.078125 C 12.703125 -3.335938 12.25 -2.023438 11.34375 -1.140625 C 10.4375 -0.253906 9.050781 0.1875 7.1875 0.1875 Z M 7.1875 0.1875 "/></g></g></g><g fill="#000000" fill-opacity="1"><g transform="translate(205.813167, 220.124986)"><g><path d="M 6.640625 -13.5625 C 8.847656 -13.5625 10.53125 -12.992188 11.6875 -11.859375 C 12.84375 -10.722656 13.421875 -9.03125 13.421875 -6.78125 C 13.421875 -4.539062 12.84375 -2.847656 11.6875 -1.703125 C 10.53125 -0.566406 8.847656 0 6.640625 0 L 1.765625 0 L 1.765625 -13.5625 Z M 6.484375 -2.25 C 7.878906 -2.25 8.921875 -2.601562 9.609375 -3.3125 C 10.304688 -4.03125 10.65625 -5.1875 10.65625 -6.78125 C 10.65625 -8.375 10.304688 -9.523438 9.609375 -10.234375 C 8.921875 -10.953125 7.878906 -11.3125 6.484375 -11.3125 L 4.4375 -11.3125 L 4.4375 -2.25 Z M 6.484375 -2.25 "/></g></g></g><g fill="#000000" fill-opacity="1"><g transform="translate(220.310679, 220.124986)"><g><path d="M 4.4375 0 L 1.765625 0 L 1.765625 -13.5625 L 4.4375 -13.5625 Z M 4.4375 0 "/></g></g></g><g fill="#000000" fill-opacity="1"><g transform="translate(226.525221, 220.124986)"><g><path d="M 7.390625 0.1875 C 6.148438 0.1875 5.054688 -0.0625 4.109375 -0.5625 C 3.160156 -1.070312 2.414062 -1.847656 1.875 -2.890625 C 1.332031 -3.929688 1.0625 -5.226562 1.0625 -6.78125 C 1.0625 -8.332031 1.332031 -9.628906 1.875 -10.671875 C 2.414062 -11.710938 3.160156 -12.488281 4.109375 -13 C 5.054688 -13.507812 6.148438 -13.765625 7.390625 -13.765625 C 8.640625 -13.765625 9.734375 -13.507812 10.671875 -13 C 11.617188 -12.5 12.359375 -11.722656 12.890625 -10.671875 C 13.429688 -9.628906 13.703125 -8.332031 13.703125 -6.78125 C 13.703125 -5.226562 13.429688 -3.925781 12.890625 -2.875 C 12.359375 -1.832031 11.617188 -1.0625 10.671875 -0.5625 C 9.734375 -0.0625 8.640625 0.1875 7.390625 0.1875 Z M 7.390625 -2.140625 C 8.546875 -2.140625 9.425781 -2.503906 10.03125 -3.234375 C 10.632812 -3.972656 10.9375 -5.15625 10.9375 -6.78125 C 10.9375 -8.40625 10.632812 -9.585938 10.03125 -10.328125 C 9.425781 -11.066406 8.546875 -11.4375 7.390625 -11.4375 C 6.234375 -11.4375 5.347656 -11.066406 4.734375 -10.328125 C 4.128906 -9.585938 3.828125 -8.40625 3.828125 -6.78125 C 3.828125 -5.15625 4.128906 -3.972656 4.734375 -3.234375 C 5.347656 -2.503906 6.234375 -2.140625 7.390625 -2.140625 Z M 7.390625 -2.140625 "/></g></g></g><g fill="#000000" fill-opacity="1"><g transform="translate(241.300996, 220.124986)"><g><path d="M 6.015625 0.1875 C 5.078125 0.1875 4.238281 0.0703125 3.5 -0.15625 C 2.769531 -0.382812 2.160156 -0.6875 1.671875 -1.0625 C 1.179688 -1.445312 0.804688 -1.863281 0.546875 -2.3125 L 2.015625 -4.109375 L 2.25 -4.109375 C 2.65625 -3.503906 3.171875 -3.019531 3.796875 -2.65625 C 4.429688 -2.300781 5.171875 -2.125 6.015625 -2.125 C 6.734375 -2.125 7.273438 -2.273438 7.640625 -2.578125 C 8.003906 -2.878906 8.1875 -3.296875 8.1875 -3.828125 C 8.1875 -4.148438 8.125 -4.421875 8 -4.640625 C 7.882812 -4.859375 7.691406 -5.039062 7.421875 -5.1875 C 7.148438 -5.34375 6.78125 -5.476562 6.3125 -5.59375 L 4.578125 -6 C 3.359375 -6.269531 2.445312 -6.726562 1.84375 -7.375 C 1.25 -8.019531 0.953125 -8.863281 0.953125 -9.90625 C 0.953125 -10.664062 1.144531 -11.335938 1.53125 -11.921875 C 1.914062 -12.503906 2.472656 -12.957031 3.203125 -13.28125 C 3.941406 -13.601562 4.816406 -13.765625 5.828125 -13.765625 C 6.878906 -13.765625 7.773438 -13.625 8.515625 -13.34375 C 9.265625 -13.070312 9.894531 -12.648438 10.40625 -12.078125 L 9.078125 -10.265625 L 8.84375 -10.265625 C 8.46875 -10.660156 8.03125 -10.957031 7.53125 -11.15625 C 7.039062 -11.363281 6.472656 -11.46875 5.828125 -11.46875 C 5.097656 -11.46875 4.539062 -11.335938 4.15625 -11.078125 C 3.769531 -10.816406 3.578125 -10.457031 3.578125 -10 C 3.578125 -9.570312 3.710938 -9.226562 3.984375 -8.96875 C 4.253906 -8.71875 4.71875 -8.523438 5.375 -8.390625 L 7.15625 -8.015625 C 8.476562 -7.734375 9.4375 -7.257812 10.03125 -6.59375 C 10.625 -5.9375 10.921875 -5.070312 10.921875 -4 C 10.921875 -3.15625 10.738281 -2.414062 10.375 -1.78125 C 10.007812 -1.15625 9.457031 -0.671875 8.71875 -0.328125 C 7.976562 0.015625 7.078125 0.1875 6.015625 0.1875 Z M 6.015625 0.1875 "/></g></g></g><g transform="matrix(1, 0, 0, 1, 252, 205)"><g clip-path="url(#e2733f9930)"><g clip-path="url(#f02bd2c798)"><g fill="#000000" fill-opacity="1"><g transform="translate(0.872156, 5.732946)"><g><path d="M 2.5 -3.21875 L 2.5 -2.890625 L 1.5 -2.890625 L 1.5 0 L 1.125 0 L 1.125 -2.890625 L 0.125 -2.890625 L 0.125 -3.21875 Z M 2.5 -3.21875 "/></g></g><g transform="translate(3.495697, 5.732946)"><g><path d="M 0.828125 0 L 0.484375 0 L 0.484375 -3.21875 L 1.046875 -3.21875 L 2.015625 -0.5 L 2.0625 -0.5 L 3.03125 -3.21875 L 3.578125 -3.21875 L 3.578125 0 L 3.21875 0 L 3.21875 -2.625 L 3.171875 -2.625 L 2.21875 0 L 1.84375 0 L 0.890625 -2.625 L 0.828125 -2.625 Z M 0.828125 0 "/></g></g></g></g></g></g></svg>