<svg width="512" height="512" viewBox="0 0 512 512" fill="none" xmlns="http://www.w3.org/2000/svg">
<g clip-path="url(#clip0_1_2)">
<circle cx="256" cy="256" r="256" fill="#0F172A"/>
<path d="M183.875 253.55C194.692 255.567 203.583 260.975 210.55 269.775C217.517 278.575 221 288.658 221 300.025C221 310.292 218.433 319.367 213.3 327.25C208.35 334.95 201.108 341 191.575 345.4C182.042 349.8 170.767 352 157.75 352H74.975V160.05H154.175C167.192 160.05 178.375 162.158 187.725 166.375C197.258 170.592 204.408 176.458 209.175 183.975C214.125 191.492 216.6 200.017 216.6 209.55C216.6 220.733 213.575 230.083 207.525 237.6C201.658 245.117 193.775 250.433 183.875 253.55ZM113.475 239.25H148.675C157.842 239.25 164.9 237.233 169.85 233.2C174.8 228.983 177.275 223.025 177.275 215.325C177.275 207.625 174.8 201.667 169.85 197.45C164.9 193.233 157.842 191.125 148.675 191.125H113.475V239.25ZM152.25 320.65C161.6 320.65 168.842 318.45 173.975 314.05C179.292 309.65 181.95 303.417 181.95 295.35C181.95 287.1 179.2 280.683 173.7 276.1C168.2 271.333 160.775 268.95 151.425 268.95H113.475V320.65H152.25ZM328.959 353.925C315.576 353.925 303.476 351.633 292.659 347.05C282.026 342.467 273.592 335.867 267.359 327.25C261.126 318.633 257.917 308.458 257.734 296.725H298.984C299.534 304.608 302.284 310.842 307.234 315.425C312.367 320.008 319.334 322.3 328.134 322.3C337.117 322.3 344.176 320.192 349.309 315.975C354.442 311.575 357.009 305.892 357.009 298.925C357.009 293.242 355.267 288.567 351.784 284.9C348.301 281.233 343.901 278.392 338.584 276.375C333.451 274.175 326.301 271.792 317.134 269.225C304.667 265.558 294.492 261.983 286.609 258.5C278.909 254.833 272.217 249.425 266.534 242.275C261.034 234.942 258.284 225.225 258.284 213.125C258.284 201.758 261.126 191.858 266.809 183.425C272.492 174.992 280.467 168.575 290.734 164.175C301.001 159.592 312.734 157.3 325.934 157.3C345.734 157.3 361.776 162.158 374.059 171.875C386.526 181.408 393.401 194.792 394.684 212.025H352.334C351.967 205.425 349.126 200.017 343.809 195.8C338.676 191.4 331.801 189.2 323.184 189.2C315.667 189.2 309.617 191.125 305.034 194.975C300.634 198.825 298.434 204.417 298.434 211.75C298.434 216.883 300.084 221.192 303.384 224.675C306.867 227.975 311.084 230.725 316.034 232.925C321.167 234.942 328.317 237.325 337.484 240.075C349.951 243.742 360.126 247.408 368.009 251.075C375.892 254.742 382.676 260.242 388.359 267.575C394.042 274.908 396.884 284.533 396.884 296.45C396.884 306.717 394.226 316.25 388.909 325.05C383.592 333.85 375.801 340.908 365.534 346.225C355.267 351.358 343.076 353.925 328.959 353.925Z" fill="white"/>
<path d="M420.47 229.22C419.81 229.22 419.26 229 418.82 228.56C418.38 228.12 418.16 227.57 418.16 226.91V212.06C418.16 210.74 418.527 209.787 419.26 209.2C420.067 208.54 420.8 207.99 421.46 207.55L443.13 193.58L421.46 179.72C420.8 179.353 420.067 178.84 419.26 178.18C418.527 177.447 418.16 176.457 418.16 175.21V160.36C418.16 159.7 418.38 159.15 418.82 158.71C419.26 158.27 419.81 158.05 420.47 158.05C420.69 158.05 420.91 158.123 421.13 158.27C421.423 158.343 421.717 158.453 422.01 158.6L463.92 186.98C464.947 187.64 465.717 188.3 466.23 188.96C466.817 189.62 467.11 190.5 467.11 191.6V195.67C467.11 196.77 466.817 197.65 466.23 198.31C465.717 198.97 464.947 199.63 463.92 200.29L422.01 228.67C421.717 228.817 421.423 228.927 421.13 229C420.91 229.147 420.69 229.22 420.47 229.22Z" fill="#00BFA6"/>
</g>
<defs>
<clipPath id="clip0_1_2">
<rect width="512" height="512" fill="white"/>
</clipPath>
</defs>
</svg>
