<svg width="512" height="512" viewBox="0 0 512 512" fill="none" xmlns="http://www.w3.org/2000/svg">
<rect width="512" height="512" fill="black"/>
<path d="M129.849 429.095V82.8644" stroke="#D3AF37" stroke-width="20" stroke-linecap="round"/>
<path d="M129.869 323.56V290.152C129.869 281.297 133.301 272.804 139.401 266.546C145.521 260.267 153.798 256.765 162.429 256.765H293.572C316.796 256.765 339.058 247.286 355.476 230.441C371.893 213.597 381.131 190.755 381.131 166.927C381.131 143.099 371.893 120.257 355.476 103.412C339.058 86.5475 316.796 77.0887 293.572 77.0887H133.595C131.536 77.0887 129.869 78.7994 129.869 80.9125V84.7362" stroke="#D3AF37" stroke-width="20"/>
<path d="M129.869 291.641V257.61C129.869 238.813 144.717 223.558 163.057 223.558H290.747C340.667 223.558 381.131 265.076 381.131 316.294V342.175C381.131 393.393 340.667 434.911 290.747 434.911H133.595C131.536 434.911 129.869 433.201 129.869 431.087V427.264" stroke="#D3AF37" stroke-width="20"/>
<path d="M165.136 119.492V389.791" stroke="#D3AF37" stroke-width="20" stroke-linecap="round"/>
<path d="M165.155 123.638V119.371C165.155 118.244 165.587 117.178 166.352 116.373C167.136 115.588 168.195 115.125 169.294 115.125H275.075C304.026 115.125 327.505 139.215 327.505 168.919C327.505 198.604 304.026 222.693 275.075 222.693H165.94C165.724 222.693 165.528 222.613 165.371 222.452C165.234 222.311 165.155 222.11 165.155 221.888V221.083" stroke="#D3AF37" stroke-width="20"/>
<path d="M165.155 253.384V255.074C165.155 256 165.881 256.765 166.783 256.765H259.835C277.782 256.765 295.004 264.07 307.675 277.091C320.365 290.112 327.505 307.761 327.505 326.176C327.505 344.59 320.365 362.24 307.675 375.261C295.004 388.282 277.782 395.587 259.835 395.587H169.706C168.509 395.587 167.332 395.104 166.489 394.218C165.626 393.333 165.155 392.146 165.155 390.898V386.229" stroke="#D3AF37" stroke-width="20"/>
</svg>
